<svg height="512" viewBox="0 0 64 64" width="512" xmlns="http://www.w3.org/2000/svg" fill="#00b269">
  <path d="M26 57h6v2h-6z"/>
  <path d="M63 17.279l-2.455-.819 1.157-2.314-3.848-3.848-2.315 1.158L54.721 9H49.28l-.818 2.456-2.315-1.158-3.848 3.848.426.854h-4.352C36.235 6.844 28.749 1 20.244 1h-.488C9.414 1 1 9.414 1 19.755 1 25.87 3.99 31.614 9 35.12c1.252.876 2 2.313 2 3.841V39H4.307L.557 49H4v9c0 2.757 2.243 5 5 5h22c2.757 0 5-2.243 5-5v-9h3.443l-3.75-10H29v-.038c0-1.528.748-2.965 2-3.841 3.505-2.453 6.039-6.029 7.232-10.121h4.493l-.427.854 3.848 3.848 2.315-1.158.818 2.456h5.441l.818-2.456 2.315 1.158 3.848-3.848-1.157-2.314L63 22.721zM18.923 39l-1.36-17h2.489c.164.115.34.215.532.288l1.775.666L21.077 39zm2.364-18.585C21.115 20.35 21 20.184 21 20s.115-.35.288-.415L27 17.443v5.114zM29 21h12v1.721l.837.279H29zm12-3.721V19H29v-2h12.837zM10.146 33.482C5.672 30.35 3 25.218 3 19.755 3 10.517 10.517 3 19.756 3h.488c7.423 0 13.983 4.979 16.063 12h-8.489l-7.232 2.712C19.638 18.067 19 18.987 19 20h-1.597l-.186-2.319C17.052 15.617 15.301 14 13.23 14H13c-2.206 0-4 1.794-4 4s1.794 4 4 4h2.557l1.36 17H13v-.038c0-2.181-1.066-4.229-2.854-5.48zM15.396 20H13c-1.103 0-2-.897-2-2s.897-2 2-2h.23c1.035 0 1.911.809 1.993 1.84zM5.693 41h10.863l-2.25 6H3.443zM6 58v-9h9.693L18 42.849V61H9c-1.654 0-3-1.346-3-3zm28 0c0 1.654-1.346 3-3 3H20V42.849L22.307 49H34zm2.557-11H23.693l-2.25-6h12.863zm-6.703-13.518C28.066 34.733 27 36.781 27 38.962V39h-3.917l1.225-15.316L27.818 25h8.331c-1.128 3.422-3.325 6.403-6.295 8.482zM61 21.279l-2.294.765-.169.441c-.05.128-.1.255-.155.379l-.194.433 1.081 2.162-1.809 1.809-2.162-1.081-.433.194c-.123.055-.248.105-.375.153l-.445.168L53.279 29H50.72l-.766-2.298-.445-.168c-.127-.048-.252-.098-.375-.153l-.433-.194-2.162 1.081-1.809-1.809 1.081-2.162-.194-.433c-.056-.125-.105-.251-.155-.379l-.169-.441L43 21.279V18.72l2.294-.765.169-.441c.05-.128.1-.255.155-.379l.194-.433-1.081-2.162 1.809-1.809 2.162 1.081.433-.194c.123-.055.248-.105.375-.153l.445-.168.766-2.297h2.559l.766 2.298.445.168c.127.048.252.098.375.153l.433.194 2.162-1.081 1.809 1.809-1.081 2.162.194.433c.056.125.105.251.155.379l.169.441 2.293.765z"/>
  <path d="M52 15c-2.757 0-5 2.243-5 5s2.243 5 5 5 5-2.243 5-5-2.243-5-5-5zm0 8c-1.654 0-3-1.346-3-3s1.346-3 3-3 3 1.346 3 3-1.346 3-3 3zM7 20H5c0 .712.051 1.433.151 2.141l1.98-.281C7.044 21.244 7 20.619 7 20zM7.539 23.715l-1.918.57c1.096 3.683 3.538 6.775 6.878 8.708l1.002-1.731c-2.896-1.676-5.014-4.356-5.962-7.547zM17 7h2v2h-2zM13 7h2v2h-2zM25 7h2v2h-2zM21 7h2v2h-2z"/>
</svg>