<svg height="512" viewBox="0 0 64 64" width="512" xmlns="http://www.w3.org/2000/svg" fill="#00b269">
  <path d="M52 57h2v2h-2zM48 57h2v2h-2zM44 57h2v2h-2zM44 53h10v2H44z"/>
  <path d="M63 12c0-1.654-1.346-3-3-3V7c1.654 0 3-1.346 3-3s-1.346-3-3-3H44c-1.654 0-3 1.346-3 3s1.346 3 3 3v2c-1.302 0-2.402.839-2.816 2H40c-2.757 0-5 2.243-5 5v21h-2V16c0-2.757-2.243-5-5-5h-1V4c0-1.654-1.346-3-3-3H4C2.346 1 1 2.346 1 4v14c0 1.654 1.346 3 3 3h20c1.654 0 3-1.346 3-3v-5h1c1.654 0 3 1.346 3 3v21h-2v-5c0-2.757-2.243-5-5-5h-3.101c-.465-2.279-2.484-4-4.899-4H8c-2.757 0-5 2.243-5 5s2.243 5 5 5h13v-4h3c1.654 0 3 1.346 3 3v5H6.382l-5 10H6v16h52V47h4.618l-5-10H41v-3c0-1.654 1.346-3 3-3h1.101c.465 2.279 2.484 4 4.899 4 2.757 0 5-2.243 5-5s-2.243-5-5-5c-2.414 0-4.434 1.721-4.899 4H44c-2.757 0-5 2.243-5 5v3h-2V16c0-1.654 1.346-3 3-3h1.184c.414 1.161 1.514 2 2.816 2v2c-1.654 0-3 1.346-3 3s1.346 3 3 3h16c1.654 0 3-1.346 3-3s-1.346-3-3-3v-2c1.654 0 3-1.346 3-3zm-38 6c0 .552-.448 1-1 1H4c-.552 0-1-.448-1-1V4c0-.552.448-1 1-1h20c.552 0 1 .448 1 1zm-6 13H8c-1.654 0-3-1.346-3-3s1.346-3 3-3h8c1.654 0 3 1.346 3 3zm31-4c1.654 0 3 1.346 3 3s-1.346 3-3 3-3-1.346-3-3 1.346-3 3-3zM7.618 39h14.764l-3 6H4.618zM8 47h12.618L24 40.236V61H8zm48 14H26V40.236L29.382 47H56zm3.382-16H30.618l-3-6h28.764zM43 4c0-.552.448-1 1-1h16c.552 0 1 .448 1 1s-.448 1-1 1H44c-.552 0-1-.448-1-1zm3 3h12v2H46zm-3 5c0-.552.448-1 1-1h16c.552 0 1 .448 1 1s-.448 1-1 1H44c-.552 0-1-.448-1-1zm18 8c0 .552-.448 1-1 1H44c-.552 0-1-.448-1-1s.448-1 1-1h16c.552 0 1 .448 1 1zm-3-3H46v-2h12z"/>
  <path d="M17 7h-4v2H9v2H5v6h18V5h-6zm-4 4v4h-2v-4zm-6 2h2v2H7zm8 2V9h2v6zm4-8h2v8h-2zM7 27h2v2H7zM11 27h2v2h-2zM15 27h2v2h-2zM53 41h2v2h-2zM49 41h2v2h-2zM45 41h2v2h-2zM10 49h2v2h-2zM10 53h2v2h-2zM10 57h2v2h-2z"/>
</svg>