<svg height="512" viewBox="0 0 64 64" width="512" xmlns="http://www.w3.org/2000/svg" fill="#00b269">
  <path d="M32 19a13 13 0 1013 13 13.015 13.015 0 00-13-13zm0 24a11 11 0 1111-11 11.013 11.013 0 01-11 11zM6 5h2v2H6zM10 5h2v2h-2zM14 5h2v2h-2z"/>
  <path d="M62 23V5a3 3 0 00-3-3H41a3 3 0 00-3 3v11.128c-.331-.125-.661-.255-1-.359V12a1 1 0 00-1-1h-8a1 1 0 00-1 1v3.769c-.339.1-.669.234-1 .359V5a3 3 0 00-3-3H5a3 3 0 00-3 3v18a3 3 0 003 3h11.128c-.125.331-.256.661-.36 1H12a1 1 0 00-1 1v8a1 1 0 001 1h3.768c.1.339.235.669.36 1H5a3 3 0 00-3 3v18a3 3 0 003 3h18a3 3 0 003-3V47.872c.331.125.661.255 1 .359V52a1 1 0 001 1h8a1 1 0 001-1v-3.769c.339-.1.669-.234 1-.359V59a3 3 0 003 3h18a3 3 0 003-3V41a3 3 0 00-3-3H47.872c.125-.331.256-.661.36-1H52a1 1 0 001-1v-8a1 1 0 00-1-1h-3.768c-.1-.339-.235-.669-.36-1H59a3 3 0 003-3zm-3 1H47.071l2.607-2.606a1 1 0 000-1.415l-5.657-5.657a1 1 0 00-1.415 0L40 16.928V10h20v13a1 1 0 01-1 1zM41 4h18a1 1 0 011 1v3H40V5a1 1 0 011-1zM5 4h18a1 1 0 011 1v3H4V5a1 1 0 011-1zM4 23V10h20v6.928l-2.606-2.606a1 1 0 00-1.415 0l-5.657 5.657a1 1 0 000 1.415L16.929 24H5a1 1 0 01-1-1zm1 17h11.929l-2.607 2.606A.991.991 0 0014.309 44H4v-3a1 1 0 011-1zm18 20H5a1 1 0 01-1-1V46h12.3l3.677 3.678a1 1 0 001.415 0L24 47.072V59a1 1 0 01-1 1zm36 0H41a1 1 0 01-1-1V47.072l2.606 2.606a1 1 0 001.415 0L47.7 46H60v13a1 1 0 01-1 1zm1-19v3H49.691a.991.991 0 00-.013-1.394L47.071 40H59a1 1 0 011 1zm-9-12v6h-3.524a1 1 0 00-.969.75 14.864 14.864 0 01-1.6 3.856 1 1 0 00.154 1.216l2.492 2.491-4.244 4.244-2.491-2.492a1 1 0 00-1.215-.154 14.925 14.925 0 01-3.857 1.6 1 1 0 00-.75.969V51H29v-3.524a1 1 0 00-.75-.969 14.925 14.925 0 01-3.857-1.6 1 1 0 00-1.215.154l-2.491 2.492-4.244-4.244 2.492-2.491a1 1 0 00.154-1.216 14.864 14.864 0 01-1.6-3.856 1 1 0 00-.969-.75H13V29h3.524a1 1 0 00.969-.75 14.864 14.864 0 011.6-3.856 1 1 0 00-.154-1.216l-2.492-2.491 4.244-4.244 2.491 2.492a1 1 0 001.215.154 14.925 14.925 0 013.857-1.6 1 1 0 00.75-.969V13h6v3.524a1 1 0 00.75.969 14.925 14.925 0 013.857 1.6 1.006 1.006 0 001.215-.154l2.491-2.492 4.244 4.244-2.492 2.491a1 1 0 00-.154 1.216 14.864 14.864 0 011.6 3.856 1 1 0 00.969.75z"/>
  <path d="M42 5h2v2h-2zM46 5h2v2h-2zM50 5h2v2h-2zM6 41h2v2H6zM10 41h2v2h-2z"/>
</svg>