<svg height="512" viewBox="0 0 64 64" width="512" xmlns="http://www.w3.org/2000/svg" fill="#00b269">
  <circle cx="22" cy="14" r="1"/>
  <path d="M37 34c0-6.462-3.446-12.378-9.021-15.592-.144-3.326-1.448-6.146-2.345-7.705C27.587 10.022 29 8.182 29 6c0-2.757-2.243-5-5-5-1.116 0-2.136.38-2.969 1h-3.364C11.233 2 6 7.233 6 13.667c0 2.224.654 4.383 1.82 6.23C3.534 23.3 1 28.5 1 34c0 9.925 8.075 18 18 18 3.058 0 5.938-.771 8.463-2.123L40.586 63H41c3.859 0 7-3.14 7-7v-.414L34.877 42.463C36.229 39.938 37 37.058 37 34zm-22-1.382V45.3c-1.492-.53-2.846-1.344-4.001-2.382L11 32.385c0-2.643 1.477-4.993 3.796-6.175L19 30.414l2.204-2.204C23.523 29.392 25 31.742 25 34.385v9.991C23.233 45.402 21.187 46 19 46c-.683 0-1.348-.071-2-.181V31.382l-2.553-1.276-.895 1.789zm-2.807-8.473l.943.707C10.586 26.474 9 29.275 9 32.385l-.001 8.232C7.739 38.719 7 36.445 7 34c0-3.984 1.94-7.61 5.193-9.855zM22 26.351V24.75c.633-.214 1.22-.556 1.707-1.042.169-.169.313-.354.451-.544C28.34 25.146 31 29.31 31 34c0 3.542-1.552 6.72-4 8.919v-8.534c0-3.451-1.941-6.535-5-8.034zm1-7.072v1.307c0 .645-.251 1.251-.707 1.707S21.23 23 20.586 23H18v2h2v1.586l-1 1-3-3v-4.757c0-.801-.313-1.555-.879-2.122l-.828-.828c-.189-.189-.293-.441-.293-.708V16c0-.551.448-1 1-1h1v-3c0-.551.448-1 1-1h6.473c.659 1.016 2.298 3.86 2.506 7.287zM17.667 4h1.757c-.27.614-.424 1.288-.424 2h2c0-1.654 1.346-3 3-3s3 1.346 3 3-1.346 3-3 3h-7c-1.654 0-3 1.346-3 3v1.171c-1.164.413-2 1.525-2 2.829v.171c0 .801.313 1.555.879 2.122l.828.828c.189.189.293.441.293.708v3.172l-2.134-1.6C9.445 19.584 8 16.693 8 13.667 8 8.336 12.337 4 17.667 4zM3 34c0-4.877 2.241-9.489 6.035-12.516.451.5.941.968 1.48 1.386C7.04 25.511 5 29.572 5 34c0 7.72 6.28 14 14 14s14-6.28 14-14c0-5.505-3.143-10.387-8.076-12.683.033-.197.068-.393.074-.596l1.896-.632C31.902 22.936 35 28.223 35 34c0 8.822-7.178 16-16 16S3 42.822 3 34zm42.984 22.398c-.193 2.44-2.146 4.393-4.586 4.586L29.216 48.802c1.791-1.24 3.346-2.795 4.586-4.586z"/>
  <path d="M47 53h14V39H47zm2-12h10v10H49z"/>
  <path d="M53 46.586l-1.293-1.293-1.414 1.414L53 49.414l5.707-5.707-1.414-1.414zM47 37h14V23H47zm2-12h10v10H49z"/>
  <path d="M53 30.586l-1.293-1.293-1.414 1.414L53 33.414l5.707-5.707-1.414-1.414zM31 1v8h32V1zm14 2h4v4h-4zm-2 4h-4V3h4zm8-4h4v4h-4zM33 3h4v4h-4zm28 4h-4V3h4zM37 11h18v2H37zM37 15h18v2H37zM53 19h2v2h-2zM37 19h2v2h-2zM45 19h2v2h-2zM49 19h2v2h-2zM41 19h2v2h-2z"/>
</svg>