<svg height="512" viewBox="0 0 60 60" width="512" xmlns="http://www.w3.org/2000/svg" fill="#00b269">
    <path d="M54 27.182V8c-.0033061-2.76005315-2.2399468-4.99669388-5-5h-6c0-1.65685425-1.3431458-3-3-3s-3 1.34314575-3 3H17C17 1.34314578 15.6568542 6e-8 14 6e-8S11 1.34314578 11 3H5C2.23994685 3.00330612.00330612 5.23994685 0 8v40c.00330612 2.7600532 2.23994685 4.9966939 5 5h21.285c4.4701023 5.500913 11.6326869 8.0529964 18.5740763 6.6180848 6.9413893-1.4349116 12.5050274-6.6177371 14.4276742-13.4401478C61.2093974 39.3555264 59.1707066 32.0302627 54 27.182zM37 5.869V7c0 1.65685425 1.3431458 3 3 3s3-1.34314575 3-3V5.869c.6348011.65400659.9929785 1.52760119 1 2.439-.1681855 2.0843921-1.9088336 3.6902478-4 3.6902478S36.1681855 10.3923921 36 8.308c.0070215-.91139881.3651989-1.78499341 1-2.439zM39 3c0-.55228475.4477153-1 1-1s1 .44771525 1 1v4c0 .55228475-.4477153 1-1 1s-1-.44771525-1-1zM11 5.869V7c0 1.65685422 1.3431458 2.99999994 3 2.99999994S17 8.65685422 17 7V5.869c.6348011.65400659.9929785 1.52760119 1 2.439-.0904077 2.121609-1.8779548 3.771515-4 3.692-2.1220452.079515-3.9095923-1.570391-4-3.692.0070215-.91139881.3651989-1.78499341 1-2.439zM13 3c0-.55228475.4477153-1 1-1s1 .44771525 1 1v4c0 .55228475-.4477153 1-1 1s-1-.44771525-1-1zM5 5h4.133C8.4045637 5.94953555 8.00667043 7.11125746 8 8.308c.09102178 3.2259942 2.7736878 5.77095 6 5.692 3.2263122.07895 5.9089782-2.4660058 6-5.692-.0066704-1.19674254-.4045637-2.35846445-1.133-3.308h16.266c-.7284363.94953555-1.1263296 2.11125746-1.133 3.308.1649621 3.1934124 2.8023297 5.6980581 6 5.6980581S45.8350379 11.5014124 46 8.308c-.0066704-1.19674254-.4045637-2.35846445-1.133-3.308H49c1.6568542 0 3 1.34314575 3 3v8H2V8c0-1.65685425 1.34314575-3 3-3zm0 46c-1.65685425 0-3-1.3431458-3-3V18h50v7.537c-5.2321176-3.757244-12.0211697-4.5809823-18-2.184V22c0-1.1045695-.8954305-2-2-2h-4c-1.1045695 0-2 .8954305-2 2v3c0 1.1045695.8954305 2 2 2h.2c-6.7739473 6.1392657-8.1747561 16.250367-3.325 24zm25.794-26H28v-3h4v2.273c-.414.227-.811.474-1.206.727zM41 58c-9.3888407 0-17-7.6111593-17-17s7.6111593-17 17-17 17 7.6111593 17 17c-.010471 9.3845001-7.6154999 16.989529-17 17z"/>
    <path d="M10 20H6c-1.1045695 0-2 .8954305-2 2v3c0 1.1045695.8954305 2 2 2h4c1.1045695 0 2-.8954305 2-2v-3c0-1.1045695-.8954305-2-2-2zm-4 5v-3h4v3zM17 27h4c1.1045695 0 2-.8954305 2-2v-3c0-1.1045695-.8954305-2-2-2h-4c-1.1045695 0-2 .8954305-2 2v3c0 1.1045695.8954305 2 2 2zm0-5h4v3h-4zM10 30H6c-1.1045695 0-2 .8954305-2 2v3c0 1.1045695.8954305 2 2 2h4c1.1045695 0 2-.8954305 2-2v-3c0-1.1045695-.8954305-2-2-2zm-4 5v-3h4v3zM21 30h-4c-1.1045695 0-2 .8954305-2 2v3c0 1.1045695.8954305 2 2 2h2c.5522847 0 1-.4477153 1-1s-.4477153-1-1-1h-2v-3h4c.5522847 0 1-.4477153 1-1s-.4477153-1-1-1zM10 40H6c-1.1045695 0-2 .8954305-2 2v3c0 1.1045695.8954305 2 2 2h4c1.1045695 0 2-.8954305 2-2v-3c0-1.1045695-.8954305-2-2-2zm-4 5v-3h4v3zM20 45h-3v-3h2c.5522847 0 1-.4477153 1-1s-.4477153-1-1-1h-2c-1.1045695 0-2 .8954305-2 2v3c0 1.1045695.8954305 2 2 2h3c.5522847 0 1-.4477153 1-1s-.4477153-1-1-1zM31.707 40.707c.3789722-.3923789.3735524-1.0160848-.0121814-1.4018186S30.6853789 38.9140278 30.293 39.293l-.173.173c.6784259-4.8357666 4.4657329-8.6442262 9.297646-9.3495745C44.2495591 29.4110773 48.9675201 31.9779633 51 36.418c.2402248.4849495.8226559.6907927 1.3142538.4644843.491598-.2263083.7139542-.8026372.5017462-1.3004843-2.4430596-5.3253697-8.1465391-8.3584363-13.9277354-7.4066625C33.1070684 29.1271113 28.6769332 33.8285018 28.07 39.656l-.363-.363c-.3923789-.3789722-1.0160848-.3735524-1.4018186.0121814S25.9140278 40.3146211 26.293 40.707l2 2c.3904999.3903819 1.0235001.3903819 1.414 0zM52.293 39.293l-2 2c-.3789722.3923789-.3735524 1.0160848.0121814 1.4018186s1.0094397.3911536 1.4018186.0121814l.173-.173c-.6784259 4.8357666-4.4657329 8.6442262-9.297646 9.3495745C37.7504409 52.5889227 33.0324799 50.0220367 31 45.582c-.2402248-.4849495-.8226559-.6907927-1.3142538-.4644843-.491598.2263083-.7139542.8026372-.5017462 1.3004843 2.4430596 5.3253697 8.1465391 8.3584363 13.9277354 7.4066625C48.8929316 52.8728887 53.3230668 48.1714982 53.93 42.344l.363.363c.3923789.3789722 1.0160848.3735524 1.4018186-.0121814S56.0859722 41.6853789 55.707 41.293l-2-2c-.3904999-.3903819-1.0235001-.3903819-1.414 0z"/>
    <path d="M41 47c.5522847 0 1-.4477153 1-1v-6.586l.293.293c.3923789.3789722 1.0160848.3735524 1.4018186-.0121814S44.0859722 38.6853789 43.707 38.293l-2-2c-.3904999-.3903819-1.0235001-.3903819-1.414 0l-2 2c-.3789722.3923789-.3735524 1.0160848.0121814 1.4018186s1.0094397.3911536 1.4018186.0121814l.293-.293V46c0 .5522847.4477153 1 1 1z"/>
</svg>