<?xml version="1.0" standalone="no"?>
<!DOCTYPE svg PUBLIC "-//W3C//DTD SVG 20010904//EN"
 "http://www.w3.org/TR/2001/REC-SVG-20010904/DTD/svg10.dtd">
<svg version="1.0" xmlns="http://www.w3.org/2000/svg"
 width="350.000000pt" height="350.000000pt" viewBox="0 0 350.000000 350.000000"
 preserveAspectRatio="xMidYMid meet">
<metadata>
Created by potrace 1.11, written by Peter Selinger 2001-2013
</metadata>
<g transform="translate(0.000000,350.000000) scale(0.100000,-0.100000)"
fill="#000000" stroke="none">
<path d="M1657 2532 c-43 -5 -52 -34 -53 -171 0 -97 -4 -127 -15 -133 -8 -4
-35 -17 -61 -29 -47 -21 -135 -96 -124 -106 3 -3 20 0 38 7 89 32 228 42 363
25 39 -5 74 -9 78 -10 4 0 9 89 10 198 2 163 5 199 17 207 17 11 23 10 -130
13 -52 1 -107 1 -123 -1z"/>
<path d="M2340 2513 c-78 -28 -138 -73 -186 -139 l-29 -40 1 -157 c1 -87 3
-159 5 -160 2 -2 33 -24 69 -49 74 -52 158 -130 184 -170 10 -16 21 -28 25
-28 3 0 6 171 6 380 0 425 7 391 -75 363z"/>
<path d="M2454 2143 l1 -388 53 2 c83 4 202 62 245 119 l17 23 -40 -1 c-54 -1
-110 31 -138 78 -28 48 -26 130 4 172 26 35 101 73 134 68 14 -2 32 -5 41 -5
9 -1 33 -12 53 -26 33 -22 36 -23 36 -6 0 44 -41 146 -79 196 -69 91 -186 155
-285 155 l-44 0 2 -387z"/>
<path d="M197 2481 c-48 -72 -62 -134 -62 -271 0 -69 3 -143 7 -165 65 -373
307 -776 584 -973 105 -75 193 -106 299 -105 84 1 104 5 174 32 311 124 402
533 173 779 -26 29 -50 52 -53 52 -3 0 -5 -33 -6 -72 0 -60 -6 -85 -31 -138
-17 -36 -39 -74 -49 -85 -36 -41 -133 -107 -175 -120 -138 -41 -324 43 -488
222 -195 213 -344 570 -336 806 1 42 -1 77 -4 77 -4 0 -19 -18 -33 -39z"/>
<path d="M1589 2096 c-2 -2 -23 -6 -47 -10 -59 -8 -172 -48 -229 -82 -47 -27
-177 -143 -169 -151 2 -2 28 7 57 21 47 21 105 40 159 53 8 2 55 6 103 8 217
12 431 -84 568 -255 45 -56 87 -128 99 -170 8 -27 6 -35 -15 -56 l-25 -25 165
1 165 2 31 31 c28 28 31 35 25 74 -11 79 -106 239 -185 311 -177 162 -367 241
-592 248 -59 1 -108 1 -110 0z"/>
<path d="M2851 1923 l-63 -15 51 -45 c166 -145 172 -392 12 -542 -192 -180
-759 -183 -1014 -4 -26 18 -49 33 -51 33 -13 0 17 -67 49 -110 124 -169 435
-279 775 -274 137 2 187 8 299 35 144 36 268 97 332 164 90 94 132 199 131
330 -2 287 -251 492 -521 428z"/>
<path d="M1605 1683 c3 -239 1 -217 21 -237 13 -13 41 -16 155 -16 123 0 139
2 126 15 -11 11 -15 41 -15 124 l0 109 27 -8 c14 -4 45 -16 69 -28 23 -11 42
-17 42 -14 -1 12 -82 95 -130 133 -73 58 -182 111 -256 123 l-41 7 2 -208z"/>
<path d="M881 1844 c-53 -15 -79 -38 -101 -87 -53 -117 46 -249 172 -230 132
19 187 191 91 280 -48 45 -98 56 -162 37z"/>
</g>
</svg>
